<svg width="164" height="266" fill="none" xmlns="http://www.w3.org/2000/svg"><g filter="url(#a)" fill="#666"><path d="M49.654 148.599c-7.004-2.736-11.71-9.766-11.71-17.492v-10.808c0-5.299-7.943-5.299-7.943 0v10.808c0 10.141 5.636 19.446 14.275 23.986v71.247c0 2.263 1.778 4.098 3.972 4.098s3.971-1.835 3.971-4.098v-73.908c0-1.703-1.021-3.23-2.565-3.833Z"/><path d="M133.039 86.288c-1.174-3.153-3.468-5.644-6.458-7.016-6.1-2.799-13.514.245-16.191 6.455l-6.2 14.814v-50.96c.169-8.655-8.806-15.016-16.561-11.835-.943-17.002-23.84-16.987-24.504 0-7.757-3.179-16.729 3.18-16.561 11.836v8.382C38.812 54.786 29.83 61.143 30.002 69.8v30.008c0 5.298 7.943 5.298 7.943 0V69.799c.222-5.896 8.403-5.885 8.619 0v28.502c0 5.299 7.943 5.299 7.943 0v-48.72c.212-5.88 8.4-5.898 8.618 0v39.854c0 5.298 7.943 5.298 7.943 0V37.589c0-2.451 1.933-4.447 4.31-4.447 2.376 0 4.308 1.995 4.308 4.447v51.846c0 5.298 7.943 5.298 7.943 0V49.58c0-2.452 1.934-4.447 4.31-4.447 2.377 0 4.31 1.995 4.31 4.447v60.457c-11.723 1.082-20.896 11.252-20.896 23.421 0 5.299 7.943 5.299 7.943 0 0-11.489 10.081-15.729 19.573-15.323 1.584 0 3.018-.972 3.646-2.473l11.152-26.645c1.292-2.373 3.189-3.125 5.688-2.257 2.3 1.334 3.029 3.29 2.187 5.87-6.264 14.537-19.2 44.289-19.2 44.289-1.831 5.369-5.897 9.735-10.875 11.68-1.544.603-2.566 2.129-2.566 3.832v72.291c0 2.263 1.778 4.098 3.972 4.098s3.971-1.835 3.971-4.098v-69.636c5.903-3.131 10.628-8.664 12.931-15.274a7926.217 7926.217 0 0 0 19.024-43.852 12.934 12.934 0 0 0 .24-9.673Z"/></g><defs><filter id="a" x="0" y="0" width="165" height="267" filterUnits="userSpaceOnUse" color-interpolation-filters="sRGB"><feFlood flood-opacity="0" result="BackgroundImageFix"/><feColorMatrix in="SourceAlpha" values="0 0 0 0 0 0 0 0 0 0 0 0 0 0 0 0 0 0 127 0" result="hardAlpha"/><feOffset dy="5"/><feGaussianBlur stdDeviation="15"/><feComposite in2="hardAlpha" operator="out"/><feColorMatrix values="0 0 0 0 0.168627 0 0 0 0 0.25098 0 0 0 0 1 0 0 0 1 0"/><feBlend in2="BackgroundImageFix" result="effect1_dropShadow_38_291"/><feBlend in="SourceGraphic" in2="effect1_dropShadow_38_291" result="shape"/></filter></defs></svg>