<svg width="308" height="457" fill="none" xmlns="http://www.w3.org/2000/svg"><g filter="url(#a)" fill="#2B40FF"><path d="M76.795 263.839c-16.676-5.287-27.88-18.871-27.88-33.8v-20.887c0-10.239-18.911-10.239-18.911 0v20.887c0 19.595 13.417 37.576 33.988 46.349v137.674c0 4.374 4.232 7.92 9.456 7.92 5.223 0 9.455-3.546 9.455-7.92V271.245c0-3.291-2.432-6.24-6.108-7.406Z"/><path d="M275.331 143.43c-2.796-6.091-8.257-10.906-15.376-13.557-14.525-5.408-32.177.474-38.549 12.474l-14.763 28.627V72.5c.401-16.725-20.966-29.017-39.432-22.87-2.245-32.854-56.76-32.825-58.342 0-18.47-6.143-39.83 6.144-39.431 22.871V88.7c-18.457-6.141-39.84 6.142-39.432 22.871v57.985c0 10.24 18.911 10.24 18.911 0v-57.986c.527-11.395 20.007-11.374 20.52 0v55.075c0 10.239 18.913 10.239 18.913 0V72.5c.505-11.364 19.998-11.398 20.519 0v77.011c0 10.239 18.911 10.239 18.911 0V49.327c0-4.737 4.602-8.593 10.261-8.593 5.658 0 10.26 3.854 10.26 8.593v100.184c0 10.239 18.912 10.239 18.912 0v-77.01c0-4.739 4.603-8.594 10.261-8.594 5.658 0 10.26 3.854 10.26 8.593v116.825c-27.911 2.09-49.75 21.742-49.75 45.258 0 10.239 18.912 10.239 18.912 0 0-22.202 24.002-30.395 46.602-29.61 3.772 0 7.185-1.879 8.681-4.779l26.552-51.488c3.077-4.585 7.592-6.039 13.542-4.36 5.476 2.576 7.212 6.357 5.208 11.342-14.914 28.091-45.714 85.582-45.714 85.582-4.36 10.374-14.04 18.812-25.894 22.57-3.676 1.166-6.108 4.114-6.108 7.406v139.692c0 4.373 4.232 7.919 9.456 7.919 5.223 0 9.456-3.546 9.456-7.919V276.376c14.055-6.051 25.303-16.743 30.787-29.515 15.222-28.201 30.281-56.459 45.296-84.738 3.163-5.963 3.367-12.601.571-18.693Z"/></g><defs><filter id="a" x="0" y="0" width="310" height="460" filterUnits="userSpaceOnUse" color-interpolation-filters="sRGB"><feFlood flood-opacity="0" result="BackgroundImageFix"/><feColorMatrix in="SourceAlpha" values="0 0 0 0 0 0 0 0 0 0 0 0 0 0 0 0 0 0 127 0" result="hardAlpha"/><feOffset dy="5"/><feGaussianBlur stdDeviation="15"/><feComposite in2="hardAlpha" operator="out"/><feColorMatrix values="0 0 0 0 0.168627 0 0 0 0 0.25098 0 0 0 0 1 0 0 0 1 0"/><feBlend in2="BackgroundImageFix" result="effect1_dropShadow_78_212"/><feBlend in="SourceGraphic" in2="effect1_dropShadow_78_212" result="shape"/></filter></defs></svg>