<svg width="307" height="459" fill="none" xmlns="http://www.w3.org/2000/svg"><g filter="url(#a)"><path d="M245.184 59.919v-9.713c.101-21.87-37.251-33.326-59.553-18.567-12.969-8.803-35.07-8.8-48.034 0-20.129-13.345-53.765-5.398-58.88 13.682-22.55-6.765-49.227 5.94-48.71 23.416v92.861c0 20.228 16.345 38.789 41.402 47.847l4.078 205.767c0 4.515 5.156 8.175 11.52 8.175 6.362 0 11.518-3.66 11.518-8.175l-4.078-211.077c0-3.398-2.962-6.441-7.44-7.645-20.314-5.457-33.962-19.48-33.962-34.892v-53.003c12.078 3.433 27.423 1.18 36.515-5.037 12.969 8.802 35.072 8.801 48.036 0 6.329 4.126 14.764 6.652 24.018 6.652h44.191v11.142c-22.863 5.928-44.262 22.245-44.262 44.938 0 4.514 5.156 8.174 11.519 8.174s11.519-3.66 11.519-8.174c0-16.968 17.951-28.483 34.842-30.704 5.46-.718 9.421-4.097 9.421-8.038v-25.514c0-4.515-5.156-8.175-11.519-8.175h-55.711c-6.892 0-12.499-3.98-12.499-8.87 0-4.89 5.606-8.87 12.499-8.87h79.729c6.891 0 12.499 3.978 12.499 8.87v76.609c0 15.412-13.649 29.434-33.961 34.892-4.479 1.204-7.441 4.247-7.441 7.645l4.077 211.077c0 4.515 5.156 8.175 11.519 8.175s11.519-3.66 11.519-8.175l-4.077-205.767c25.057-9.058 41.402-27.619 41.402-47.847V84.989c0-12.985-13.901-23.705-31.696-25.07Zm-35.537-18.583c6.892 0 12.499 3.979 12.499 8.87v9.564H197.15v-9.564c0-4.89 5.606-8.87 12.497-8.87ZM65.543 93.86c-6.892 0-12.5-3.978-12.5-8.87V68.736c.63-11.754 24.373-11.745 24.997 0v16.253c.001 4.892-5.605 8.87-12.497 8.87Zm48.037 0c-6.892 0-12.501-3.978-12.501-8.87V50.206c.63-11.753 24.374-11.745 24.998 0V84.99c0 4.892-5.606 8.87-12.497 8.87Zm35.535-32.474V50.207c.629-11.754 24.372-11.744 24.996 0v9.564h-12.499c-4.396-.001-8.607.572-12.497 1.614Z" fill="#F800FD"/></g><defs><filter id="a" x="0" y="0" width="310" height="460" filterUnits="userSpaceOnUse" color-interpolation-filters="sRGB"><feFlood flood-opacity="0" result="BackgroundImageFix"/><feColorMatrix in="SourceAlpha" values="0 0 0 0 0 0 0 0 0 0 0 0 0 0 0 0 0 0 127 0" result="hardAlpha"/><feOffset dy="5"/><feGaussianBlur stdDeviation="15"/><feComposite in2="hardAlpha" operator="out"/><feColorMatrix values="0 0 0 0 0.972549 0 0 0 0 0 0 0 0 0 0.992157 0 0 0 1 0"/><feBlend in2="BackgroundImageFix" result="effect1_dropShadow_78_195"/><feBlend in="SourceGraphic" in2="effect1_dropShadow_78_195" result="shape"/></filter></defs></svg>