<svg width="164" height="267" fill="none" xmlns="http://www.w3.org/2000/svg"><g filter="url(#a)"><path d="M120.377 43.07v-5.026c.043-11.317-15.645-17.246-25.012-9.608-5.447-4.556-14.73-4.555-20.174 0-8.454-6.906-22.582-2.794-24.73 7.08-9.471-3.5-20.675 3.074-20.458 12.118V95.69c0 10.467 6.865 20.073 17.389 24.76l1.713 106.485c0 2.336 2.165 4.23 4.838 4.23 2.672 0 4.838-1.894 4.838-4.23l-1.713-109.232c0-1.759-1.244-3.334-3.125-3.957-8.532-2.824-14.264-10.081-14.264-18.056V68.26c5.073 1.777 11.518.611 15.336-2.606 5.447 4.555 14.73 4.554 20.175 0 2.659 2.135 6.201 3.442 10.088 3.442h18.56v5.766c-9.602 3.068-18.59 11.512-18.59 23.255 0 2.337 2.165 4.231 4.838 4.231 2.672 0 4.838-1.894 4.838-4.23 0-8.781 7.539-14.74 14.634-15.89 2.293-.371 3.957-2.12 3.957-4.16V64.866c0-2.336-2.166-4.23-4.838-4.23h-23.4c-2.894 0-5.249-2.06-5.249-4.59 0-2.532 2.355-4.59 5.25-4.59h33.486c2.894 0 5.25 2.058 5.25 4.59V95.69c0 7.975-5.733 15.231-14.264 18.056-1.881.623-3.125 2.198-3.125 3.957l1.712 109.232c0 2.336 2.166 4.23 4.838 4.23 2.673 0 4.838-1.894 4.838-4.23l-1.712-106.485c10.524-4.687 17.388-14.293 17.388-24.76V56.044c0-6.72-5.838-12.267-13.312-12.973Zm-14.925-9.616c2.894 0 5.249 2.059 5.249 4.59v4.95h-10.498v-4.95c0-2.53 2.355-4.59 5.249-4.59Zm-60.524 27.18c-2.895 0-5.25-2.058-5.25-4.59v-8.411c.265-6.083 10.237-6.078 10.499 0v8.411c0 2.532-2.354 4.59-5.25 4.59Zm20.175 0c-2.894 0-5.25-2.058-5.25-4.59v-18c.265-6.082 10.237-6.078 10.5 0v18c0 2.532-2.355 4.59-5.25 4.59ZM80.028 43.83v-5.784c.265-6.083 10.237-6.078 10.498 0v4.949h-5.249c-1.846 0-3.615.296-5.249.835Z" fill="#666"/></g><defs><filter id="a" x="0" y="0" width="165" height="267" filterUnits="userSpaceOnUse" color-interpolation-filters="sRGB"><feFlood flood-opacity="0" result="BackgroundImageFix"/><feColorMatrix in="SourceAlpha" values="0 0 0 0 0 0 0 0 0 0 0 0 0 0 0 0 0 0 127 0" result="hardAlpha"/><feOffset dy="5"/><feGaussianBlur stdDeviation="15"/><feComposite in2="hardAlpha" operator="out"/><feColorMatrix values="0 0 0 0 0.972549 0 0 0 0 0 0 0 0 0 0.992157 0 0 0 1 0"/><feBlend in2="BackgroundImageFix" result="effect1_dropShadow_38_296"/><feBlend in="SourceGraphic" in2="effect1_dropShadow_38_296" result="shape"/></filter></defs></svg>