<svg width="310" height="460" fill="none" xmlns="http://www.w3.org/2000/svg"><g filter="url(#a)" fill="#FBFF35"><path d="M223.997 352.478c-6.364 0-11.521 3.625-11.521 8.097v56.326c.529 10.723 22.52 10.715 23.043 0v-56.326c0-4.472-5.157-8.097-11.522-8.097ZM254.155 27.033c-18.53-3.697-38.696 4.326-43.895 17.213L188.944 97.04l-13.535-51.586c-3.555-13.547-22.138-22.539-41.402-20.037-19.274 2.498-32.061 15.552-28.508 29.1L117.065 98.6c-17.598-1.204-34.908 7.797-38.337 20.022-22.555-6.701-49.238 5.884-48.72 23.196v91.989c0 20.037 16.347 38.424 41.41 47.396v135.699c0 4.472 5.157 8.098 11.521 8.098 6.364 0 11.521-3.626 11.521-8.098V275.943c0-3.367-2.963-6.381-7.442-7.573-20.318-5.407-33.968-19.297-33.968-34.564V181.3c12.08 3.402 27.43 1.168 36.524-4.989 12.97 8.719 35.077 8.717 48.043 0 6.331 4.087 14.769 6.589 24.023 6.589h44.202v11.037c-22.869 5.873-44.273 22.036-44.273 44.516 0 4.472 5.157 8.098 11.521 8.098 6.365 0 11.522-3.626 11.522-8.098 0-16.808 17.954-28.215 34.851-30.415 5.461-.71 9.423-4.059 9.423-7.963v-25.274c0-4.472-5.157-8.098-11.522-8.098h-55.723c-16.536-.432-16.578-17.129 0-17.573 26.582 0 53.164.002 79.746 0 6.893 0 12.501 3.941 12.501 8.787v75.889c0 15.267-13.652 29.156-33.968 34.564-4.479 1.192-7.442 4.206-7.442 7.573v42.883c0 4.472 5.157 8.098 11.521 8.098 6.364 0 11.521-3.626 11.521-8.098v-37.624c25.063-8.972 41.411-27.359 41.411-47.396v-75.889c0-12.148-12.402-22.292-28.771-24.522l30.487-75.509c5.348-13.254-5.637-27.094-24.492-30.853ZM65.551 166.703c-6.893 0-12.501-3.941-12.501-8.786v-16.101c.63-11.644 24.379-11.634 25.002 0v16.101c.002 4.845-5.608 8.786-12.5 8.786Zm60.547-8.786c-.623 11.631-24.372 11.645-25.001 0v-34.456c.62-11.631 24.371-11.646 25.001 0v34.456Zm23.042-23.383v-11.072c0-4.972-2.086-9.606-5.662-13.502l-15.317-58.38c-1.251-4.764 3.246-9.355 10.025-10.234 6.779-.878 13.311 2.282 14.561 7.047l22.182 84.542h-13.288c-4.398-.001-8.61.567-12.501 1.599Zm107.34-81.07-32.086 79.47h-25.992l34.024-84.268c2.769-5.015 7.915-7.033 15.44-6.053 6.63 1.322 10.495 6.19 8.614 10.852Z"/></g><defs><filter id="a" x="0" y="0" width="310" height="460" filterUnits="userSpaceOnUse" color-interpolation-filters="sRGB"><feFlood flood-opacity="0" result="BackgroundImageFix"/><feColorMatrix in="SourceAlpha" values="0 0 0 0 0 0 0 0 0 0 0 0 0 0 0 0 0 0 127 0" result="hardAlpha"/><feOffset dy="5"/><feGaussianBlur stdDeviation="15"/><feComposite in2="hardAlpha" operator="out"/><feColorMatrix values="0 0 0 0 0.984314 0 0 0 0 1 0 0 0 0 0.207843 0 0 0 1 0"/><feBlend in2="BackgroundImageFix" result="effect1_dropShadow_78_203"/><feBlend in="SourceGraphic" in2="effect1_dropShadow_78_203" result="shape"/></filter></defs></svg>