<svg width="165" height="267" fill="none" xmlns="http://www.w3.org/2000/svg"><g filter="url(#a)" fill="#666"><path d="M111.479 194.47c-2.673 0-4.839 1.876-4.839 4.19v29.149c.222 5.549 9.459 5.545 9.678 0V198.66c0-2.314-2.166-4.19-4.839-4.19ZM124.145 26.052c-7.783-1.913-16.252 2.239-18.436 8.908L96.756 62.28l-5.684-26.695c-1.493-7.011-9.298-11.664-17.389-10.37-8.095 1.293-13.466 8.048-11.973 15.06l4.857 22.812c-7.391-.623-14.661 4.035-16.101 10.362-9.473-3.469-20.68 3.044-20.463 12.003v47.604c0 10.37 6.866 19.885 17.392 24.528v70.224c0 2.315 2.166 4.191 4.84 4.191 2.672 0 4.838-1.876 4.838-4.191v-72.946c0-1.742-1.244-3.302-3.126-3.919-8.533-2.798-14.266-9.986-14.266-17.887v-27.172c5.074 1.761 11.52.605 15.34-2.582 5.447 4.513 14.732 4.512 20.178 0 2.66 2.116 6.203 3.41 10.09 3.41h18.564v5.712c-9.604 3.039-18.594 11.404-18.594 23.037 0 2.314 2.166 4.19 4.839 4.19 2.673 0 4.839-1.876 4.839-4.19 0-8.698 7.541-14.602 14.637-15.74 2.294-.367 3.958-2.1 3.958-4.121v-13.079c0-2.314-2.166-4.19-4.839-4.19H85.289c-6.945-.224-6.963-8.865 0-9.095h33.493c2.895 0 5.251 2.04 5.251 4.547v39.273c0 7.901-5.734 15.089-14.266 17.887-1.882.617-3.126 2.177-3.126 3.919v22.192c0 2.314 2.166 4.191 4.839 4.191 2.673 0 4.838-1.877 4.838-4.191v-19.47c10.527-4.644 17.393-14.159 17.393-24.528V93.784c0-6.286-5.209-11.536-12.084-12.69l12.805-39.075c2.246-6.86-2.368-14.022-10.287-15.967Zm-79.213 72.28c-2.896 0-5.251-2.04-5.251-4.548v-8.332c.265-6.025 10.24-6.02 10.501 0v8.332c0 2.508-2.355 4.547-5.25 4.547Zm25.429-4.548c-.261 6.02-10.236 6.027-10.5 0V75.953c.26-6.019 10.236-6.026 10.5 0v17.831Zm9.678-12.1v-5.73c0-2.573-.876-4.97-2.378-6.987l-6.433-30.212c-.526-2.465 1.363-4.841 4.21-5.296 2.847-.454 5.59 1.181 6.116 3.647l9.316 43.75h-5.58a16.88 16.88 0 0 0-5.251.828ZM125.12 39.73l-13.476 41.126h-10.916l14.29-43.609c1.163-2.595 3.324-3.64 6.485-3.132 2.785.684 4.408 3.203 3.617 5.615Z"/></g><defs><filter id="a" x="0" y="0" width="165" height="267" filterUnits="userSpaceOnUse" color-interpolation-filters="sRGB"><feFlood flood-opacity="0" result="BackgroundImageFix"/><feColorMatrix in="SourceAlpha" values="0 0 0 0 0 0 0 0 0 0 0 0 0 0 0 0 0 0 127 0" result="hardAlpha"/><feOffset dy="5"/><feGaussianBlur stdDeviation="15"/><feComposite in2="hardAlpha" operator="out"/><feColorMatrix values="0 0 0 0 0.984314 0 0 0 0 1 0 0 0 0 0.207843 0 0 0 1 0"/><feBlend in2="BackgroundImageFix" result="effect1_dropShadow_51_193"/><feBlend in="SourceGraphic" in2="effect1_dropShadow_51_193" result="shape"/></filter></defs></svg>