<svg width="164" height="266" viewBox="0 0 164 266" fill="none" xmlns="http://www.w3.org/2000/svg">
<g filter="url(#filter0_d_38_291)">
<path d="M49.6539 148.599C42.6498 145.863 37.9444 138.833 37.9444 131.107V120.299C37.9444 115 30.0015 115 30.0015 120.299V131.107C30.0015 141.248 35.6367 150.553 44.2765 155.093V226.34C44.2765 228.603 46.0541 230.438 48.248 230.438C50.4418 230.438 52.2194 228.603 52.2194 226.34V152.432C52.2194 150.729 51.198 149.202 49.6539 148.599Z" fill="#666666"/>
<path d="M133.039 86.2877C131.865 83.1354 129.571 80.6436 126.581 79.2716C120.481 76.4733 113.067 79.5169 110.39 85.7271L104.19 100.541V49.5813C104.359 40.9259 95.3842 34.5649 87.6287 37.7457C86.6857 20.7441 63.7894 20.7588 63.1249 37.7457C55.3678 34.5671 46.3961 40.9253 46.5639 49.5819V57.9641C38.8122 54.7861 29.8309 61.1427 30.0024 69.7998V99.8075C30.0024 105.106 37.9453 105.106 37.9453 99.8075V69.7992C38.1667 63.9027 46.3479 63.9136 46.5639 69.7992V98.301C46.5639 103.6 54.5068 103.6 54.5068 98.301C54.5068 82.0611 54.5068 65.8212 54.5068 49.5813C54.7192 43.7001 62.9062 43.6826 63.1249 49.5813V89.4346C63.1249 94.7333 71.0678 94.7333 71.0678 89.4346V37.5894C71.0678 35.1376 73.0006 33.1425 75.3771 33.1425C77.7536 33.1425 79.6864 35.137 79.6864 37.5894V89.4346C79.6864 94.7333 87.6293 94.7333 87.6293 89.4346V49.5813C87.6293 47.1295 89.5626 45.1345 91.9391 45.1345C94.3156 45.1345 96.2484 47.129 96.2484 49.5813V110.038C84.5257 111.12 75.3532 121.29 75.3532 133.459C75.3532 138.758 83.2961 138.758 83.2961 133.459C83.2961 121.97 93.3773 117.73 102.869 118.136C104.453 118.136 105.887 117.164 106.515 115.663L117.667 89.0177C118.959 86.6451 120.856 85.8926 123.355 86.7615C125.655 88.0948 126.384 90.0515 125.542 92.6312C119.278 107.168 106.342 136.92 106.342 136.92C104.511 142.289 100.445 146.655 95.4668 148.6C93.9227 149.203 92.9012 150.729 92.9012 152.432V224.723C92.9012 226.986 94.6789 228.821 96.8727 228.821C99.0665 228.821 100.844 226.986 100.844 224.723V155.087C106.747 151.956 111.472 146.423 113.775 139.813C120.168 125.219 126.493 110.596 132.799 95.9611C134.128 92.8755 134.213 89.4401 133.039 86.2877Z" fill="#666666"/>
</g>
<defs>
<filter id="filter0_d_38_291" x="0" y="0" width="165" height="267" filterUnits="userSpaceOnUse" color-interpolation-filters="sRGB">
<feFlood flood-opacity="0" result="BackgroundImageFix"/>
<feColorMatrix in="SourceAlpha" type="matrix" values="0 0 0 0 0 0 0 0 0 0 0 0 0 0 0 0 0 0 127 0" result="hardAlpha"/>
<feOffset dy="5"/>
<feGaussianBlur stdDeviation="15"/>
<feComposite in2="hardAlpha" operator="out"/>
<feColorMatrix type="matrix" values="0 0 0 0 0.168627 0 0 0 0 0.25098 0 0 0 0 1 0 0 0 1 0"/>
<feBlend mode="normal" in2="BackgroundImageFix" result="effect1_dropShadow_38_291"/>
<feBlend mode="normal" in="SourceGraphic" in2="effect1_dropShadow_38_291" result="shape"/>
</filter>
</defs>
</svg>
