<svg width="308" height="457" viewBox="0 0 308 457" fill="none" xmlns="http://www.w3.org/2000/svg">
<g filter="url(#filter0_d_78_212)">
<path d="M76.7949 263.839C60.1186 258.552 48.9153 244.968 48.9153 230.039V209.152C48.9153 198.913 30.0036 198.913 30.0036 209.152V230.039C30.0036 249.634 43.4208 267.615 63.9917 276.388V414.062C63.9917 418.436 68.2241 421.982 73.4475 421.982C78.6709 421.982 82.9034 418.436 82.9034 414.062V271.245C82.9034 267.954 80.4713 265.005 76.7949 263.839Z" fill="#2B40FF"/>
<path d="M275.331 143.43C272.535 137.339 267.074 132.524 259.955 129.873C245.43 124.465 227.778 130.347 221.406 142.347L206.643 170.974V72.5001C207.044 55.7747 185.677 43.4829 167.211 49.6293C164.966 16.776 110.451 16.8045 108.869 49.6293C90.3996 43.4871 69.0382 55.7736 69.4379 72.5012V88.6987C50.9813 82.5576 29.5973 94.8409 30.0058 111.57V169.555C30.0058 179.795 48.9174 179.795 48.9174 169.555V111.569C49.4445 100.174 68.9235 100.195 69.4379 111.569V166.644C69.4379 176.883 88.3496 176.883 88.3496 166.644C88.3496 135.263 88.3496 103.882 88.3496 72.5001C88.8551 61.1355 108.348 61.1017 108.869 72.5001V149.511C108.869 159.75 127.78 159.75 127.78 149.511V49.3273C127.78 44.5895 132.382 40.7344 138.041 40.7344C143.699 40.7344 148.301 44.5884 148.301 49.3273V149.511C148.301 159.75 167.213 159.75 167.213 149.511V72.5001C167.213 67.7623 171.816 63.9072 177.474 63.9072C183.132 63.9072 187.734 67.7613 187.734 72.5001V189.325C159.823 191.415 137.984 211.067 137.984 234.583C137.984 244.822 156.896 244.822 156.896 234.583C156.896 212.381 180.898 204.188 203.498 204.973C207.27 204.973 210.683 203.094 212.179 200.194L238.731 148.706C241.808 144.121 246.323 142.667 252.273 144.346C257.749 146.922 259.485 150.703 257.481 155.688C242.567 183.779 211.767 241.27 211.767 241.27C207.407 251.644 197.727 260.082 185.873 263.84C182.197 265.006 179.765 267.954 179.765 271.246V410.938C179.765 415.311 183.997 418.857 189.221 418.857C194.444 418.857 198.677 415.311 198.677 410.938V276.376C212.732 270.325 223.98 259.633 229.464 246.861C244.686 218.66 259.745 190.402 274.76 162.123C277.923 156.16 278.127 149.522 275.331 143.43Z" fill="#2B40FF"/>
</g>
<defs>
<filter id="filter0_d_78_212" x="0" y="0" width="310" height="460" filterUnits="userSpaceOnUse" color-interpolation-filters="sRGB">
<feFlood flood-opacity="0" result="BackgroundImageFix"/>
<feColorMatrix in="SourceAlpha" type="matrix" values="0 0 0 0 0 0 0 0 0 0 0 0 0 0 0 0 0 0 127 0" result="hardAlpha"/>
<feOffset dy="5"/>
<feGaussianBlur stdDeviation="15"/>
<feComposite in2="hardAlpha" operator="out"/>
<feColorMatrix type="matrix" values="0 0 0 0 0.168627 0 0 0 0 0.25098 0 0 0 0 1 0 0 0 1 0"/>
<feBlend mode="normal" in2="BackgroundImageFix" result="effect1_dropShadow_78_212"/>
<feBlend mode="normal" in="SourceGraphic" in2="effect1_dropShadow_78_212" result="shape"/>
</filter>
</defs>
</svg>
