<svg width="307" height="459" viewBox="0 0 307 459" fill="none" xmlns="http://www.w3.org/2000/svg">
<g filter="url(#filter0_d_78_195)">
<path d="M245.184 59.919V50.2063C245.285 28.3362 207.933 16.8796 185.631 31.6388C172.662 22.8363 150.561 22.8385 137.597 31.6388C117.468 18.2944 83.8316 26.2413 78.7171 45.3211C56.1662 38.5557 29.4898 51.2614 30.0074 68.7368V161.598C30.0074 181.826 46.352 200.387 71.4095 209.445L75.4872 415.212C75.4872 419.727 80.6431 423.387 87.0062 423.387C93.3692 423.387 98.5251 419.727 98.5251 415.212L94.4474 204.135C94.4474 200.737 91.4847 197.694 87.0062 196.49C66.6929 191.033 53.0453 177.01 53.0453 161.598V108.595C65.1233 112.028 80.468 109.775 89.5603 103.558C102.529 112.36 124.632 112.359 137.596 103.558C143.925 107.684 152.36 110.21 161.614 110.21H205.805V121.352C182.942 127.28 161.543 143.597 161.543 166.29C161.543 170.804 166.699 174.464 173.062 174.464C179.425 174.464 184.581 170.804 184.581 166.29C184.581 149.322 202.532 137.807 219.423 135.586C224.883 134.868 228.844 131.489 228.844 127.548V102.034C228.844 97.5195 223.688 93.8594 217.325 93.8594H161.614C154.722 93.8594 149.115 89.8799 149.115 84.9892C149.115 80.0986 154.721 76.1191 161.614 76.1191H241.343C248.234 76.1191 253.842 80.0975 253.842 84.9892V161.598C253.842 177.01 240.193 191.032 219.881 196.49C215.402 197.694 212.44 200.737 212.44 204.135L216.517 415.212C216.517 419.727 221.673 423.387 228.036 423.387C234.399 423.387 239.555 419.727 239.555 415.212L235.478 209.445C260.535 200.387 276.88 181.826 276.88 161.598V84.9892C276.88 72.0045 262.979 61.2836 245.184 59.919ZM209.647 41.3362C216.539 41.3362 222.146 45.3146 222.146 50.2063V59.7697H197.15V50.2063C197.15 45.3157 202.756 41.3362 209.647 41.3362ZM65.5426 93.8594C58.6512 93.8594 53.0437 89.881 53.0437 84.9892V84.2437V68.7357C53.6734 56.9816 77.4163 56.9914 78.0398 68.7357V84.9892C78.0414 89.881 72.4355 93.8594 65.5426 93.8594ZM113.58 93.8594C106.688 93.8594 101.079 89.881 101.079 84.9892V68.7357V50.2063C101.709 38.4533 125.453 38.4609 126.077 50.2063V84.9892C126.077 89.881 120.471 93.8594 113.58 93.8594ZM149.115 61.385V50.2074C149.744 38.4532 173.487 38.4631 174.111 50.2074V59.7708H161.612C157.216 59.7697 153.005 60.343 149.115 61.385Z" fill="#F800FD"/>
</g>
<defs>
<filter id="filter0_d_78_195" x="0" y="0" width="310" height="460" filterUnits="userSpaceOnUse" color-interpolation-filters="sRGB">
<feFlood flood-opacity="0" result="BackgroundImageFix"/>
<feColorMatrix in="SourceAlpha" type="matrix" values="0 0 0 0 0 0 0 0 0 0 0 0 0 0 0 0 0 0 127 0" result="hardAlpha"/>
<feOffset dy="5"/>
<feGaussianBlur stdDeviation="15"/>
<feComposite in2="hardAlpha" operator="out"/>
<feColorMatrix type="matrix" values="0 0 0 0 0.972549 0 0 0 0 0 0 0 0 0 0.992157 0 0 0 1 0"/>
<feBlend mode="normal" in2="BackgroundImageFix" result="effect1_dropShadow_78_195"/>
<feBlend mode="normal" in="SourceGraphic" in2="effect1_dropShadow_78_195" result="shape"/>
</filter>
</defs>
</svg>
