<svg width="164" height="267" viewBox="0 0 164 267" fill="none" xmlns="http://www.w3.org/2000/svg">
<g filter="url(#filter0_d_38_296)">
<path d="M120.377 43.0706V38.0443C120.42 26.7265 104.732 20.7977 95.3651 28.4356C89.9182 23.8803 80.6358 23.8814 75.1909 28.4356C66.7367 21.5299 52.6093 25.6424 50.4612 35.5162C40.9898 32.0151 29.7857 38.5903 30.0031 47.6338V95.6897C30.0031 106.157 36.8678 115.763 47.392 120.45L49.1046 226.935C49.1046 229.271 51.2701 231.165 53.9426 231.165C56.6151 231.165 58.7805 229.271 58.7805 226.935L57.0679 117.703C57.0679 115.944 55.8236 114.369 53.9426 113.746C45.411 110.922 39.679 103.665 39.679 95.6897V68.2602C44.7518 70.037 51.1966 68.8711 55.0153 65.6537C60.4622 70.209 69.7453 70.2084 75.1902 65.6537C77.8485 67.7892 81.3912 69.0961 85.2777 69.0961H103.838V74.8619C94.2356 77.9298 85.248 86.3737 85.248 98.1174C85.248 100.454 87.4135 102.348 90.086 102.348C92.7584 102.348 94.9239 100.454 94.9239 98.1174C94.9239 89.3367 102.463 83.3775 109.558 82.2285C111.851 81.8568 113.515 80.1082 113.515 78.0686V64.8651C113.515 62.5288 111.349 60.6347 108.677 60.6347H85.2777C82.3833 60.6347 80.0282 58.5754 80.0282 56.0444C80.0282 53.5135 82.3826 51.4541 85.2777 51.4541H118.764C121.658 51.4541 124.014 53.513 124.014 56.0444V95.6897C124.014 103.665 118.281 110.921 109.75 113.746C107.869 114.369 106.625 115.944 106.625 117.703L108.337 226.935C108.337 229.271 110.503 231.165 113.175 231.165C115.848 231.165 118.013 229.271 118.013 226.935L116.301 120.45C126.825 115.763 133.689 106.157 133.689 95.6897V56.0444C133.689 49.3248 127.851 43.7768 120.377 43.0706ZM105.452 33.454C108.346 33.454 110.701 35.5128 110.701 38.0443V42.9933H100.203V38.0443C100.203 35.5134 102.558 33.454 105.452 33.454ZM44.9279 60.6347C42.0335 60.6347 39.6784 58.5759 39.6784 56.0444V55.6586V47.6332C39.9428 41.5505 49.9148 41.5555 50.1767 47.6332V56.0444C50.1774 58.5759 47.8229 60.6347 44.9279 60.6347ZM65.1034 60.6347C62.209 60.6347 59.8533 58.5759 59.8533 56.0444V47.6332V38.0443C60.1178 31.9621 70.0904 31.966 70.3523 38.0443V56.0444C70.3523 58.5759 67.9978 60.6347 65.1034 60.6347ZM80.0282 43.8292V38.0448C80.2926 31.9621 90.2646 31.9671 90.5265 38.0448V42.9939H85.277C83.4309 42.9933 81.6621 43.29 80.0282 43.8292Z" fill="#666666"/>
</g>
<defs>
<filter id="filter0_d_38_296" x="0" y="0" width="165" height="267" filterUnits="userSpaceOnUse" color-interpolation-filters="sRGB">
<feFlood flood-opacity="0" result="BackgroundImageFix"/>
<feColorMatrix in="SourceAlpha" type="matrix" values="0 0 0 0 0 0 0 0 0 0 0 0 0 0 0 0 0 0 127 0" result="hardAlpha"/>
<feOffset dy="5"/>
<feGaussianBlur stdDeviation="15"/>
<feComposite in2="hardAlpha" operator="out"/>
<feColorMatrix type="matrix" values="0 0 0 0 0.972549 0 0 0 0 0 0 0 0 0 0.992157 0 0 0 1 0"/>
<feBlend mode="normal" in2="BackgroundImageFix" result="effect1_dropShadow_38_296"/>
<feBlend mode="normal" in="SourceGraphic" in2="effect1_dropShadow_38_296" result="shape"/>
</filter>
</defs>
</svg>
