<svg width="165" height="267" viewBox="0 0 165 267" fill="none" xmlns="http://www.w3.org/2000/svg">
<g filter="url(#filter0_d_51_193)">
<path d="M111.479 194.47C108.806 194.47 106.64 196.346 106.64 198.66V227.809C106.862 233.358 116.099 233.354 116.318 227.809V198.66C116.318 196.346 114.152 194.47 111.479 194.47V194.47Z" fill="#666666"/>
<path d="M124.145 26.0521C116.362 24.1389 107.893 28.291 105.709 34.9598L96.7563 62.2812L91.0716 35.5856C89.5786 28.5749 81.7738 23.9216 73.6831 25.2162C65.5879 26.5092 60.2173 33.2645 61.7096 40.2752L66.5673 63.088C59.176 62.465 51.906 67.1228 50.4659 73.4496C40.9926 69.9814 29.7857 76.4942 30.0031 85.4533V133.057C30.0031 143.427 36.8692 152.942 47.3955 157.585V227.809C47.3955 230.124 49.5614 232 52.2344 232C54.9074 232 57.0733 230.124 57.0733 227.809V154.863C57.0733 153.121 55.8288 151.561 53.9474 150.944C45.4141 148.146 39.681 140.958 39.681 133.057V105.885C44.7547 107.646 51.2014 106.49 55.021 103.303C60.4683 107.816 69.7532 107.815 75.1993 103.303C77.8581 105.419 81.4021 106.713 85.2888 106.713H103.853V112.425C94.2485 115.464 85.2591 123.829 85.2591 135.462C85.2591 137.776 87.425 139.652 90.098 139.652C92.771 139.652 94.9369 137.776 94.9369 135.462C94.9369 126.764 102.478 120.86 109.574 119.722C111.868 119.355 113.532 117.622 113.532 115.601V102.522C113.532 100.208 111.366 98.3314 108.693 98.3314H85.2894C78.3439 98.1079 78.3265 89.4668 85.2894 89.2372C96.4537 89.2372 107.618 89.2383 118.782 89.2372C121.677 89.2372 124.033 91.2766 124.033 93.7843V133.057C124.033 140.958 118.299 148.146 109.767 150.944C107.885 151.561 106.641 153.121 106.641 154.863V177.055C106.641 179.369 108.807 181.246 111.48 181.246C114.153 181.246 116.318 179.369 116.318 177.055V157.585C126.845 152.941 133.711 143.426 133.711 133.057V93.7843C133.711 87.4978 128.502 82.2483 121.627 81.0944L134.432 42.0185C136.678 35.1598 132.064 27.9971 124.145 26.0521V26.0521ZM44.9315 98.3314C42.0365 98.3314 39.681 96.292 39.681 93.7843V93.4021V85.4522C39.9455 79.4266 49.9201 79.4316 50.182 85.4522V93.7843C50.1827 96.292 47.8265 98.3314 44.9315 98.3314V98.3314ZM70.361 93.7843C70.0997 99.8038 60.1251 99.811 59.8605 93.7843V85.4522V75.9533C60.1212 69.9344 70.0965 69.9266 70.361 75.9533V93.7843ZM80.0388 81.6839V75.9539C80.0388 73.3808 79.1627 70.9832 77.6607 68.9667L71.2275 38.7554C70.7023 36.2896 72.5908 33.9138 75.438 33.459C78.2852 33.0047 81.0286 34.6402 81.5538 37.106L90.8703 80.8564H85.2894C83.4422 80.8559 81.6731 81.1498 80.0388 81.6839V81.6839ZM125.121 39.7304L111.645 80.8559H100.729L115.019 37.2473C116.182 34.6519 118.343 33.6076 121.504 34.1149C124.289 34.7989 125.912 37.3183 125.121 39.7304Z" fill="#666666"/>
</g>
<defs>
<filter id="filter0_d_51_193" x="0" y="0" width="165" height="267" filterUnits="userSpaceOnUse" color-interpolation-filters="sRGB">
<feFlood flood-opacity="0" result="BackgroundImageFix"/>
<feColorMatrix in="SourceAlpha" type="matrix" values="0 0 0 0 0 0 0 0 0 0 0 0 0 0 0 0 0 0 127 0" result="hardAlpha"/>
<feOffset dy="5"/>
<feGaussianBlur stdDeviation="15"/>
<feComposite in2="hardAlpha" operator="out"/>
<feColorMatrix type="matrix" values="0 0 0 0 0.984314 0 0 0 0 1 0 0 0 0 0.207843 0 0 0 1 0"/>
<feBlend mode="normal" in2="BackgroundImageFix" result="effect1_dropShadow_51_193"/>
<feBlend mode="normal" in="SourceGraphic" in2="effect1_dropShadow_51_193" result="shape"/>
</filter>
</defs>
</svg>
