<svg width="310" height="460" viewBox="0 0 310 460" fill="none" xmlns="http://www.w3.org/2000/svg">
<g filter="url(#filter0_d_78_203)">
<path d="M223.997 352.478C217.633 352.478 212.476 356.103 212.476 360.575V416.901C213.005 427.624 234.996 427.616 235.519 416.901V360.575C235.519 356.103 230.362 352.478 223.997 352.478V352.478Z" fill="#FBFF35"/>
<path d="M254.155 27.0331C235.625 23.3361 215.459 31.3595 210.26 44.2459L188.944 97.0409L175.409 45.4552C171.854 31.908 153.271 22.9161 134.007 25.4178C114.733 27.9163 101.946 40.9701 105.499 54.5173L117.065 98.6C99.4667 97.3962 82.1571 106.397 78.7284 118.622C56.1729 111.921 29.4897 124.506 30.0074 141.818V233.807C30.0074 253.844 46.3552 272.231 71.4178 281.203V416.902C71.4178 421.374 76.5747 425 82.939 425C89.3034 425 94.4603 421.374 94.4603 416.902V275.943C94.4603 272.576 91.497 269.562 87.0176 268.37C66.7003 262.963 53.0499 249.073 53.0499 233.806V181.3C65.1303 184.702 80.4796 182.468 89.5737 176.311C102.544 185.03 124.651 185.028 137.617 176.311C143.948 180.398 152.386 182.9 161.64 182.9H205.842V193.937C182.973 199.81 161.569 215.973 161.569 238.453C161.569 242.925 166.726 246.551 173.09 246.551C179.455 246.551 184.612 242.925 184.612 238.453C184.612 221.645 202.566 210.238 219.463 208.038C224.924 207.328 228.886 203.979 228.886 200.075V174.801C228.886 170.329 223.729 166.703 217.364 166.703H161.641C145.105 166.271 145.063 149.574 161.641 149.13C188.223 149.13 214.805 149.132 241.387 149.13C248.28 149.13 253.888 153.071 253.888 157.917V233.806C253.888 249.073 240.236 262.962 219.92 268.37C215.441 269.562 212.478 272.576 212.478 275.943V318.826C212.478 323.298 217.635 326.924 223.999 326.924C230.363 326.924 235.52 323.298 235.52 318.826V281.202C260.583 272.23 276.931 253.843 276.931 233.806V157.917C276.931 145.769 264.529 135.625 248.16 133.395L278.647 57.886C283.995 44.6325 273.01 30.7916 254.155 27.0331V27.0331ZM65.5512 166.703C58.6584 166.703 53.0499 162.762 53.0499 157.917V157.178V141.816C53.6797 130.172 77.4288 130.182 78.0525 141.816V157.917C78.054 162.762 72.444 166.703 65.5512 166.703V166.703ZM126.098 157.917C125.475 169.548 101.726 169.562 101.097 157.917V141.816V123.461C101.717 111.83 125.468 111.815 126.098 123.461V157.917ZM149.14 134.534V123.462C149.14 118.49 147.054 113.856 143.478 109.96L128.161 51.5805C126.91 46.8157 131.407 42.2247 138.186 41.3458C144.965 40.468 151.497 43.6283 152.747 48.3931L174.929 132.935H161.641C157.243 132.934 153.031 133.502 149.14 134.534V134.534ZM256.48 53.4646L224.394 132.934H198.402L232.426 48.6663C235.195 43.651 240.341 41.633 247.866 42.6134C254.496 43.935 258.361 48.8034 256.48 53.4646Z" fill="#FBFF35"/>
</g>
<defs>
<filter id="filter0_d_78_203" x="0" y="0" width="310" height="460" filterUnits="userSpaceOnUse" color-interpolation-filters="sRGB">
<feFlood flood-opacity="0" result="BackgroundImageFix"/>
<feColorMatrix in="SourceAlpha" type="matrix" values="0 0 0 0 0 0 0 0 0 0 0 0 0 0 0 0 0 0 127 0" result="hardAlpha"/>
<feOffset dy="5"/>
<feGaussianBlur stdDeviation="15"/>
<feComposite in2="hardAlpha" operator="out"/>
<feColorMatrix type="matrix" values="0 0 0 0 0.984314 0 0 0 0 1 0 0 0 0 0.207843 0 0 0 1 0"/>
<feBlend mode="normal" in2="BackgroundImageFix" result="effect1_dropShadow_78_203"/>
<feBlend mode="normal" in="SourceGraphic" in2="effect1_dropShadow_78_203" result="shape"/>
</filter>
</defs>
</svg>
